# xmcd
#
# Track frame offsets: 
#        150
#        13846
#        30104
#        44940
#        59156
#        81715
#        94777
#        112212
#        124706
#        137322
#        151272
#        167609
#        183367
#
# Disc length: 2609 seconds
#
# Revision: 0
# Processed by: cddbd v1.5.2PL0 Copyright (c) Steve Scherf et al.
# Submitted via: ExactAudioCopy v0.95b3
#
DISCID=b10a2f0d
DTITLE=Carole King  - Music (+1) (1971)  FLAC
DYEAR=1900
DGENRE=
TTITLE0=Brother, Brother
TTITLE1=It's Going To Take Some Time
TTITLE2=Sweet Seasons
TTITLE3=Some Kind Of Wonderful
TTITLE4=Surely
TTITLE5=Carry Your Load
TTITLE6=Music
TTITLE7=Song Of Long Ago
TTITLE8=Brighter
TTITLE9=Growing Away From Me
TTITLE10=Too Much Rain
TTITLE11=Back To California
TTITLE12=Pocket Money
EXTD=
EXTT0=
EXTT1=
EXTT2=
EXTT3=
EXTT4=
EXTT5=
EXTT6=
EXTT7=
EXTT8=
EXTT9=
EXTT10=
EXTT11=
EXTT12=
PLAYORDER=
